<?xml version="1.0" standalone="no"?>
<!DOCTYPE svg PUBLIC "-//W3C//DTD SVG 20010904//EN"
 "http://www.w3.org/TR/2001/REC-SVG-20010904/DTD/svg10.dtd">
<svg version="1.0" xmlns="http://www.w3.org/2000/svg"
 width="200.000000pt" height="200.000000pt" viewBox="0 0 200.000000 200.000000"
 preserveAspectRatio="xMidYMid meet">
<metadata>
Created by potrace 1.14, written by Peter Selinger 2001-2017
</metadata>
<g transform="translate(0.000000,200.000000) scale(0.100000,-0.100000)"
fill="#000000" stroke="none">
<path d="M57 1912 l-57 -58 85 -84 85 -85 -85 -85 -85 -86 58 -57 58 -57 84
85 85 85 85 -85 86 -85 57 58 57 58 -85 84 -85 85 85 85 85 86 -58 57 -58 57
-84 -85 -85 -85 -85 85 -86 85 -57 -58z"/>
<path d="M883 1885 c-44 -31 -37 -111 13 -134 58 -26 104 -6 104 44 0 32 -2
35 -30 35 -16 0 -30 -4 -30 -10 0 -5 7 -10 15 -10 8 0 15 -9 15 -20 0 -16 -7
-20 -33 -20 -40 0 -57 15 -57 51 0 38 34 61 77 53 20 -4 33 -2 33 4 0 25 -74
30 -107 7z"/>
<path d="M1720 1866 c0 -8 -6 -17 -12 -20 -10 -5 -10 -7 0 -12 6 -3 12 -20 12
-39 0 -38 22 -61 47 -50 17 8 17 8 1 12 -13 3 -18 14 -18 39 0 26 4 34 18 34
16 1 16 1 0 14 -10 7 -18 18 -18 25 0 6 -7 11 -15 11 -8 0 -15 -6 -15 -14z"/>
<path d="M1035 1830 c-40 -44 30 -119 73 -77 16 17 15 18 -17 15 -19 -2 -36 2
-38 9 -3 8 10 13 36 15 40 3 40 4 28 28 -16 33 -57 38 -82 10z m60 -10 c4 -6
-5 -10 -19 -10 -14 0 -26 5 -26 10 0 6 9 10 19 10 11 0 23 -4 26 -10z"/>
<path d="M1150 1792 c0 -38 4 -52 13 -49 6 2 12 18 13 35 1 67 44 67 44 1 0
-21 5 -39 10 -39 6 0 10 18 10 40 0 28 5 43 16 47 21 8 34 -13 34 -54 0 -18 5
-33 10 -33 14 0 12 86 -2 98 -7 5 -43 9 -80 9 l-68 -1 0 -54z"/>
<path d="M1349 1829 c-11 -11 -18 -27 -15 -36 3 -8 6 -19 6 -23 0 -16 41 -32
66 -26 35 9 29 27 -7 24 -19 -2 -34 2 -36 10 -3 8 8 12 36 12 45 0 48 5 25 38
-19 28 -48 28 -75 1z m61 -9 c0 -5 -12 -10 -26 -10 -14 0 -23 4 -19 10 3 6 15
10 26 10 10 0 19 -4 19 -10z"/>
<path d="M1476 1834 c-37 -37 4 -105 54 -89 29 9 25 24 -6 22 -15 -1 -29 4
-31 11 -3 8 7 12 31 12 28 0 36 4 36 18 0 40 -54 57 -84 26z m59 -14 c4 -6 -5
-10 -19 -10 -14 0 -26 5 -26 10 0 6 9 10 19 10 11 0 23 -4 26 -10z"/>
<path d="M1590 1793 c0 -29 5 -53 10 -53 6 0 10 13 10 29 0 39 9 61 25 61 16
0 25 -22 25 -61 0 -16 5 -29 10 -29 15 0 12 86 -3 98 -7 6 -27 10 -45 10 -32
-1 -32 -1 -32 -55z"/>
<path d="M1807 1832 c-22 -25 -21 -48 3 -72 24 -24 40 -25 66 -5 18 14 17 15
-15 12 -19 -1 -36 3 -38 10 -3 8 10 13 36 15 40 3 40 4 28 28 -16 32 -57 38
-80 12z m58 -12 c4 -6 -5 -10 -19 -10 -14 0 -26 5 -26 10 0 6 9 10 19 10 11 0
23 -4 26 -10z"/>
<path d="M1670 1647 c0 -31 -2 -33 -29 -29 -55 8 -80 -72 -30 -98 12 -7 26 -7
37 -2 9 5 23 7 30 5 9 -4 12 16 12 76 0 47 -4 81 -10 81 -5 0 -10 -15 -10 -33z
m-5 -77 c0 -18 -6 -26 -23 -28 -24 -4 -38 18 -28 44 3 9 15 14 28 12 17 -2 23
-10 23 -28z"/>
<path d="M901 1648 c-5 -13 -19 -45 -30 -71 -25 -58 -25 -57 -6 -57 8 0 15 7
15 15 0 22 69 20 86 -2 27 -38 25 0 -3 64 -33 74 -48 86 -62 51z m33 -40 c9
-35 8 -38 -14 -38 -11 0 -20 3 -20 8 0 19 13 52 20 52 4 0 10 -10 14 -22z"/>
<path d="M1310 1636 c0 -8 -6 -17 -12 -20 -10 -5 -10 -7 0 -12 6 -3 12 -23 12
-44 0 -37 19 -58 41 -44 14 8 11 24 -6 24 -10 0 -15 10 -15 30 0 20 5 30 15
30 8 0 15 5 15 10 0 6 -7 10 -15 10 -8 0 -15 7 -15 15 0 8 -4 15 -10 15 -5 0
-10 -6 -10 -14z"/>
<path d="M1010 1569 c0 -36 4 -49 14 -49 10 0 16 13 18 37 2 27 8 39 21 41 14
3 17 -4 17 -37 0 -30 4 -41 15 -41 11 0 15 11 15 41 0 33 3 40 18 37 12 -2 18
-14 20 -41 5 -55 24 -45 20 11 l-3 47 -77 1 -78 2 0 -49z"/>
<path d="M1204 1605 c-9 -23 3 -45 26 -45 12 0 20 -7 20 -16 0 -12 -6 -15 -25
-10 -26 7 -35 -8 -11 -17 21 -8 54 3 60 20 8 20 -11 43 -35 43 -11 0 -19 5
-19 10 0 6 12 10 26 10 14 0 23 4 19 10 -10 15 -55 12 -61 -5z"/>
<path d="M1396 1604 c-23 -23 -20 -61 7 -78 23 -16 67 -11 67 6 0 6 -11 7 -24
4 -15 -4 -28 0 -36 9 -11 13 -7 15 29 15 33 0 41 4 41 18 0 40 -54 57 -84 26z
m59 -14 c4 -6 -7 -10 -25 -10 -18 0 -29 4 -25 10 3 6 15 10 25 10 10 0 22 -4
25 -10z"/>
<path d="M1510 1568 c0 -26 5 -48 10 -48 6 0 10 11 10 24 0 35 10 56 26 56 8
0 14 4 14 9 0 5 -13 9 -30 9 -29 -1 -30 -3 -30 -50z"/>
<path d="M1735 1611 c-4 -7 5 -11 24 -11 17 0 31 -4 31 -10 0 -5 -11 -10 -24
-10 -32 0 -53 -26 -39 -48 6 -10 19 -16 29 -14 11 2 27 3 37 3 15 0 18 7 15
47 -3 45 -5 47 -35 50 -17 2 -34 -2 -38 -7z m55 -60 c0 -6 -5 -13 -10 -16 -15
-9 -43 3 -35 15 8 13 45 13 45 1z"/>
<path d="M1840 1569 c0 -27 5 -49 10 -49 6 0 10 12 10 28 0 36 14 56 34 49 10
-4 16 -19 16 -42 0 -47 18 -45 22 2 2 27 8 39 21 41 14 3 17 -4 17 -37 0 -30
4 -41 15 -41 11 0 15 11 15 38 0 55 -7 60 -87 59 l-73 0 0 -48z"/>
<path d="M52 1228 l-52 -53 87 -87 88 -88 -83 -83 c-45 -45 -82 -85 -82 -89 0
-3 23 -30 51 -59 l50 -52 82 81 c45 45 87 82 92 82 5 0 46 -36 90 -80 l81 -80
54 55 54 55 -84 85 -85 85 85 85 84 85 -54 55 -54 55 -81 -80 c-44 -44 -85
-80 -90 -80 -6 0 -46 36 -90 80 -44 44 -82 80 -85 80 -3 0 -29 -24 -58 -52z"/>
<path d="M57 542 l-57 -58 85 -84 85 -85 -85 -85 -85 -86 53 -52 c29 -28 57
-52 63 -52 5 0 45 36 89 80 l80 80 80 -80 c44 -44 85 -80 91 -80 5 0 33 24 62
53 l52 53 -85 84 -85 85 85 85 85 86 -58 57 -58 57 -84 -85 -85 -85 -85 85
-86 85 -57 -58z"/>
</g>
</svg>
